HIERARCHY
ROOT Hips
{
	OFFSET 0.000000 0.000000 0.000000
	CHANNELS 6 Xposition Yposition Zposition Zrotation Yrotation Xrotation 
	JOINT LHipJoint
	{
		OFFSET 0.000000 0.000000 0.000000
		CHANNELS 3 Zrotation Yrotation Xrotation
		JOINT LeftUpLeg
		{
			OFFSET 1.363060 -1.794630 0.839290
			CHANNELS 3 Zrotation Yrotation Xrotation
			JOINT LeftLeg
			{
				OFFSET 2.448110 -6.726130 0.000000
				CHANNELS 3 Zrotation Yrotation Xrotation
				JOINT LeftFoot
				{
					OFFSET 2.562200 -7.039590 0.000000
					CHANNELS 3 Zrotation Yrotation Xrotation
					JOINT LeftToeBase
					{
						OFFSET 0.157640 -0.433110 2.322550
						CHANNELS 3 Zrotation Yrotation Xrotation
						End Site
						{
							OFFSET 0.000000 0.000000 0.000000
						}
					}
				}
			}
		}
	}
	JOINT RHipJoint
	{
		OFFSET 0.000000 0.000000 0.000000
		CHANNELS 3 Zrotation Yrotation Xrotation
		JOINT RightUpLeg
		{
			OFFSET -1.305520 -1.794630 0.839290
			CHANNELS 3 Zrotation Yrotation Xrotation
			JOINT RightLeg
			{
				OFFSET -2.542530 -6.985550 0.000000
				CHANNELS 3 Zrotation Yrotation Xrotation
				JOINT RightFoot
				{
					OFFSET -2.568260 -7.056230 0.000000
					CHANNELS 3 Zrotation Yrotation Xrotation
					JOINT RightToeBase
					{
						OFFSET -0.164730 -0.452590 2.363150
						CHANNELS 3 Zrotation Yrotation Xrotation
						End Site
						{
							OFFSET 0.000000 0.000000 0.000000
						}
					}
				}
			}
		}
	}
	JOINT LowerBack
	{
		OFFSET 0.000000 0.000000 0.000000
		CHANNELS 3 Zrotation Yrotation Xrotation
		JOINT Spine
		{
			OFFSET 0.028270 2.035590 -0.193380
			CHANNELS 3 Zrotation Yrotation Xrotation
			JOINT Spine1
			{
				OFFSET 0.056720 2.048850 -0.042750
				CHANNELS 3 Zrotation Yrotation Xrotation
				JOINT Neck
				{
					OFFSET 0.000000 0.000000 0.000000
					CHANNELS 3 Zrotation Yrotation Xrotation
					JOINT Neck1
					{
						OFFSET -0.054170 1.746240 0.172020
						CHANNELS 3 Zrotation Yrotation Xrotation
						JOINT Head
						{
							OFFSET 0.104070 1.761360 -0.123970
							CHANNELS 3 Zrotation Yrotation Xrotation
							End Site
							{
								OFFSET 0.000000 0.000000 0.000000
							}
						}
					}
				}
				JOINT LeftShoulder
				{
					OFFSET 0.000000 0.000000 0.000000
					CHANNELS 3 Zrotation Yrotation Xrotation
					JOINT LeftArm
					{
						OFFSET 3.362410 1.200890 -0.311210
						CHANNELS 3 Zrotation Yrotation Xrotation
						JOINT LeftForeArm
						{
							OFFSET 4.983000 -0.000000 -0.000000
							CHANNELS 3 Zrotation Yrotation Xrotation
							JOINT LeftHand
							{
								OFFSET 3.483560 -0.000000 -0.000000
								CHANNELS 3 Zrotation Yrotation Xrotation
								JOINT LeftFingerBase
								{
									OFFSET 0.000000 0.000000 0.000000
									CHANNELS 3 Zrotation Yrotation Xrotation
									JOINT LeftHandIndex1
									{
										OFFSET 0.715260 -0.000000 -0.000000
										CHANNELS 3 Zrotation Yrotation Xrotation
										End Site
										{
											OFFSET 0.000000 0.000000 0.000000
										}
									}
								}
								JOINT LThumb
								{
									OFFSET 0.000000 0.000000 0.000000
									CHANNELS 3 Zrotation Yrotation Xrotation
									End Site
									{
										OFFSET 0.000000 0.000000 0.000000
									}
								}
							}
						}
					}
				}
				JOINT RightShoulder
				{
					OFFSET 0.000000 0.000000 0.000000
					CHANNELS 3 Zrotation Yrotation Xrotation
					JOINT RightArm
					{
						OFFSET -3.136600 1.374050 -0.404650
						CHANNELS 3 Zrotation Yrotation Xrotation
						JOINT RightForeArm
						{
							OFFSET -5.241900 -0.000000 -0.000000
							CHANNELS 3 Zrotation Yrotation Xrotation
							JOINT RightHand
							{
								OFFSET -3.444170 -0.000000 -0.000000
								CHANNELS 3 Zrotation Yrotation Xrotation
								JOINT RightFingerBase
								{
									OFFSET 0.000000 0.000000 0.000000
									CHANNELS 3 Zrotation Yrotation Xrotation
									JOINT RightHandIndex1
									{
										OFFSET -0.622530 -0.000000 -0.000000
										CHANNELS 3 Zrotation Yrotation Xrotation
										End Site
										{
											OFFSET 0.000000 0.000000 0.000000
										}
									}
								}
								JOINT RThumb
								{
									OFFSET 0.000000 0.000000 0.000000
									CHANNELS 3 Zrotation Yrotation Xrotation
									End Site
									{
										OFFSET 0.000000 0.000000 0.000000
									}
								}
							}
						}
					}
				}
			}
		}
	}
}
MOTION
Frames: 8
Frame Time: 0.016667
-1.776078 17.664173 24.115104 0.547668 5.566190 -3.105404 -7.983051 1.254676 11.871691 10.926936 -50.663315 -10.592595 92.394403 -58.371898 -41.491782 -68.270396 -81.888923 46.712952 0.000000 0.000000 0.000000 36.337543 9.681837 -46.522558 0.089664 23.218738 -21.614776 -1.352109 -26.111651 70.350442 -16.604710 20.317722 -39.079532 0.000000 0.000000 0.000000 -17.767089 -15.649886 31.082836 -3.424290 -14.882786 0.786973 34.621773 -4.529793 -24.202768 3.446103 -3.526774 17.427514 -31.976289 5.316413 15.371731 0.000000 0.000000 0.000000 20.028370 -35.571226 -64.122835 33.730106 22.440404 -112.680766 -40.322351 14.347793 139.936725 120.404242 -25.354257 157.998733 -83.729177 69.133317 -179.999998 0.000000 0.000000 0.000000 0.000000 0.000000 0.000000 12.181779 24.943799 23.950699 32.455465 -1.369986 12.520516 153.320334 48.468504 176.462812 58.436463 -58.540180 -1.826807 66.002881 -51.924626 -0.000000 0.000000 0.000000 0.000000 0.000000 0.000000 0.000000 
-1.791602 17.690075 24.302026 2.339913 4.981521 -4.888595 -8.609273 1.537124 13.718508 9.672919 -51.809588 -8.774642 91.664248 -57.640252 -38.630502 -67.838673 -83.022807 46.409209 0.000000 0.000000 0.000000 34.637948 10.196722 -44.518424 0.124632 19.279951 -22.332343 -6.919520 -27.589832 74.002640 -15.943834 15.912196 -37.396500 0.000000 0.000000 0.000000 -14.097161 -19.119001 27.361868 -2.510066 -15.597327 -4.194772 28.708444 -1.886857 -30.341228 -6.671830 1.940191 30.327467 -33.022289 5.341258 18.884706 0.000000 0.000000 0.000000 24.988235 -28.231563 -87.127346 12.754235 30.227567 -137.812442 14.514363 -35.848724 155.250366 -25.536706 60.666987 53.488615 101.848386 15.725915 0.000004 0.000000 0.000000 0.000000 0.000000 0.000000 0.000000 14.339668 25.213764 30.506375 37.326858 -6.944497 14.375027 152.201137 49.096600 176.609466 58.515038 -58.397524 -1.479013 65.685460 -52.162414 -0.000000 0.000000 0.000000 0.000000 0.000000 0.000000 0.000000 
-1.804441 17.717325 24.485331 1.912710 1.837690 -3.535521 -7.087532 1.791724 13.123455 8.985790 -52.376712 -7.690744 90.950985 -56.407500 -35.145788 -66.564964 -83.654243 46.664186 0.000000 0.000000 0.000000 33.878642 13.952155 -43.719657 1.260919 15.838396 -23.626462 -12.236961 -28.948768 77.436047 -15.043313 11.229937 -35.234496 0.000000 0.000000 0.000000 -15.254178 -25.828017 30.118310 -1.545277 -22.251288 -5.254877 30.807438 -0.551035 -42.960819 -9.921240 4.241190 35.221042 -40.321700 7.169198 21.645937 0.000000 0.000000 0.000000 24.601857 -24.245341 -114.038379 58.107992 36.392424 -174.773358 21.503272 -60.356220 54.772695 60.601535 -1.714213 76.408266 -18.459795 -84.402607 -179.999993 0.000000 0.000000 0.000000 0.000000 0.000000 0.000000 21.242222 29.612842 38.586749 38.927505 -8.639975 20.053288 147.943990 46.980386 176.627650 57.583471 -57.947174 -1.859982 64.886085 -51.490924 -0.000000 0.000000 0.000000 0.000000 0.000000 0.000000 0.000000 
-1.814252 17.745456 24.664359 1.149420 6.382914 -3.513071 -6.765040 -0.847758 12.799165 7.981909 -55.049762 -5.747913 89.798022 -55.946085 -32.855203 -65.984434 -85.679110 46.489786 0.000000 0.000000 0.000000 31.824920 11.877437 -44.966385 1.080896 11.721317 -26.109738 -16.996609 -30.362938 80.607964 -14.135373 6.884486 -33.254499 0.000000 0.000000 0.000000 -13.923342 -16.380009 27.448291 -5.466124 -13.240179 -3.493987 28.027317 -5.457502 -19.512360 2.752618 -2.524648 17.946747 -33.261405 5.617403 15.970135 0.000000 0.000000 0.000000 11.907120 -25.808853 -59.616062 -27.965457 -9.370545 -62.058808 79.361662 -76.416574 -7.406593 76.383454 42.516936 -77.213698 -56.814266 30.293687 179.999994 0.000000 0.000000 0.000000 0.000000 0.000000 0.000000 14.429520 18.969895 19.102578 33.463082 -1.579794 7.205536 156.591103 46.100250 177.516428 56.663012 -57.548600 -1.448163 63.190269 -51.416314 -0.000000 0.000000 0.000000 0.000000 0.000000 0.000000 0.000000 
-1.820431 17.774044 24.839075 1.110409 7.312998 -3.263708 -6.489727 -2.014293 12.723433 6.854621 -56.612275 -4.169033 88.366488 -55.089873 -29.995655 -64.694979 -86.986591 46.708028 0.000000 0.000000 0.000000 30.273485 12.257649 -45.032320 1.475206 8.435185 -27.706654 -21.447973 -30.802417 83.576502 -13.502701 3.030490 -31.221070 0.000000 0.000000 0.000000 -12.526964 -14.716627 26.611622 -5.585093 -10.982917 -4.416938 27.072595 -5.024415 -16.535440 4.107176 -3.204458 15.562224 -32.999512 5.553781 15.800055 0.000000 0.000000 0.000000 10.603164 -21.683605 -51.594171 -26.330083 -13.483703 -55.712114 56.720226 -69.017832 -14.317836 170.309564 27.705273 -87.161247 -179.017508 78.096616 0.000006 0.000000 0.000000 0.000000 0.000000 0.000000 0.000000 13.049040 14.789276 16.575303 33.060786 -1.441297 5.140534 157.512203 46.006853 177.078829 56.626978 -57.405470 -1.652786 63.363593 -51.198725 -0.000000 0.000000 0.000000 0.000000 0.000000 0.000000 0.000000 
-1.823518 17.802700 25.008904 -0.453999 2.267221 -1.947183 -4.292600 -0.784802 11.963799 6.121912 -56.479362 -3.241302 86.804502 -53.622970 -26.304841 -62.448001 -86.957021 47.490445 0.000000 0.000000 0.000000 30.427724 17.339685 -43.920477 3.279883 5.980313 -28.616341 -25.428538 -30.802757 85.940218 -13.142092 -0.269461 -29.168823 0.000000 0.000000 0.000000 -16.353422 -25.940525 29.668959 -2.778177 -22.780760 -6.604135 34.689226 -0.519599 -43.666884 -5.658877 2.828462 41.818072 -42.130104 7.777588 22.726064 0.000000 0.000000 0.000000 20.756496 -18.617047 -128.359395 30.691612 18.246686 -173.696533 -48.393180 6.011556 138.800634 65.942285 -50.320165 54.464630 -97.186658 69.034620 0.000005 0.000000 0.000000 0.000000 0.000000 0.000000 0.000000 24.827469 28.012098 42.898261 35.826372 -11.413726 18.157897 147.871798 47.750641 174.616303 57.317774 -57.454672 -3.214916 66.039822 -50.230632 -0.000000 0.000000 0.000000 0.000000 0.000000 0.000000 0.000000 
-1.823841 17.831152 25.173994 -1.210560 9.469917 -1.225527 -4.494972 -4.853208 10.740259 4.923119 -59.712655 -1.320627 85.000850 -53.209682 -24.568258 -61.304534 -89.016684 47.514243 0.000000 0.000000 0.000000 27.850888 13.498573 -46.439283 2.713059 2.774188 -31.530647 -28.584107 -31.239424 88.396983 -12.995103 -2.819759 -27.566187 0.000000 0.000000 0.000000 -13.733157 -9.442984 27.586935 -6.301107 -6.860374 0.498050 31.137873 -7.716724 -6.629575 13.643496 -6.686298 1.374494 -30.139873 4.987824 11.876553 0.000000 0.000000 0.000000 6.545394 -23.990520 -24.203386 20.484617 -16.327453 -48.498780 -69.477873 33.009697 -121.926250 -155.557750 -55.199338 -39.917805 -40.139796 47.610852 -179.999994 0.000000 0.000000 0.000000 0.000000 0.000000 0.000000 9.357016 11.680134 9.327338 27.279714 4.259629 0.595848 158.234844 46.470621 175.704684 57.542822 -57.536802 -1.962704 64.892064 -51.235346 -0.000000 0.000000 0.000000 0.000000 0.000000 0.000000 0.000000 
-1.822120 17.859170 25.334462 -2.025380 6.751757 -1.208822 -3.643168 -3.912536 10.700950 4.303477 -60.571564 -0.797021 83.504523 -50.888966 -21.097797 119.223549 -88.458514 -133.284904 0.000000 0.000000 0.000000 27.505857 16.209637 -45.361528 3.896241 0.647015 -32.435910 -31.609483 -30.920006 90.059416 -12.951689 -4.823646 -26.259991 0.000000 0.000000 0.000000 -15.332785 -16.266666 26.833091 -5.842619 -12.053352 -1.152143 35.788787 -5.237659 -18.735418 7.438588 -6.420221 21.423001 -27.640483 3.952685 14.783305 0.000000 0.000000 0.000000 19.888300 -23.717463 -58.744974 -26.421994 -12.955736 -62.987540 38.573146 41.595781 36.974584 -115.122162 18.024079 -83.472426 -152.248268 -76.196967 -0.000292 0.000000 0.000000 0.000000 0.000000 0.000000 0.000000 11.296110 20.929445 21.501646 30.658091 -2.663475 5.123562 156.325304 49.292290 174.948828 57.163550 -56.995717 -2.354223 64.795284 -50.697183 -0.000000 0.000000 0.000000 0.000000 0.000000 0.000000 0.000000 
